<svg width="80" height="109" viewBox="0 0 80 109" fill="none" xmlns="http://www.w3.org/2000/svg">
<g filter="url(#filter0_d_2765_75762)">
<path fill-rule="evenodd" clip-rule="evenodd" d="M40.0469 9.0782C22.8371 9.0782 8.88588 23.6142 8.88588 41.5452C8.88588 49.752 11.8052 57.2463 16.6293 62.9657L29.257 36.1557C33.4543 27.2444 45.6466 27.2444 49.8439 36.1557L62.8204 63.7063C68.0274 57.901 71.2079 50.1106 71.2079 41.5452C71.2079 23.6142 57.2566 9.0782 40.0469 9.0782ZM66.6923 71.9268C74.5863 64.4065 79.5469 53.5787 79.5469 41.5452C79.5469 18.8156 61.8621 0.389709 40.0469 0.389709C18.2316 0.389709 0.546875 18.8156 0.546875 41.5452C0.546875 53.2287 5.22356 63.7768 12.7211 71.2633L2.59998 92.7515C0.187226 97.874 1.64099 103.552 5.25643 106.935L9.90816 97.0396C9.95539 96.885 10.0145 96.7312 10.0861 96.5792L19.3229 76.9685L19.3061 76.9569L27.9366 58.6591L27.9449 58.6631L36.7431 39.9835C37.8879 37.5531 41.213 37.5531 42.3577 39.9835L56.1795 69.3287C51.4748 72.3017 45.9566 74.0121 40.0469 74.0121C36.9562 74.0121 33.9724 73.5443 31.156 72.6726L27.8274 80.6923C31.6762 81.9958 35.7837 82.7006 40.0469 82.7006C47.2653 82.7006 54.0383 80.6798 59.8648 77.1528L65.6648 89.4669L65.6952 89.446L67.2369 92.8047L69.0148 96.5792C69.0974 96.7547 69.1634 96.9325 69.2137 97.1112L73.7594 107.014C77.437 103.641 78.9325 97.914 76.5009 92.7515L66.6923 71.9268Z" fill="#656565" style="mix-blend-mode:overlay" shape-rendering="crispEdges"/>
</g>
<defs>
<filter id="filter0_d_2765_75762" x="0.546875" y="0.389709" width="79" height="107.625" filterUnits="userSpaceOnUse" color-interpolation-filters="sRGB">
<feFlood flood-opacity="0" result="BackgroundImageFix"/>
<feColorMatrix in="SourceAlpha" type="matrix" values="0 0 0 0 0 0 0 0 0 0 0 0 0 0 0 0 0 0 127 0" result="hardAlpha"/>
<feOffset dy="1"/>
<feComposite in2="hardAlpha" operator="out"/>
<feColorMatrix type="matrix" values="0 0 0 0 1 0 0 0 0 1 0 0 0 0 1 0 0 0 0.18 0"/>
<feBlend mode="normal" in2="BackgroundImageFix" result="effect1_dropShadow_2765_75762"/>
<feBlend mode="normal" in="SourceGraphic" in2="effect1_dropShadow_2765_75762" result="shape"/>
</filter>
</defs>
</svg>
