<svg width="293" height="297" viewBox="0 0 293 297" fill="none" xmlns="http://www.w3.org/2000/svg">
<g filter="url(#filter0_d_3935_89973)">
<g filter="url(#filter1_di_3935_89973)">
<path fill-rule="evenodd" clip-rule="evenodd" d="M221.048 224.9C231.284 217.793 233.043 216.014 236.541 212.445C239.69 209.247 241.259 207.647 248.286 197.142C271.906 161.807 271.906 81.0215 248.276 45.6567C241.279 35.1512 239.72 33.5918 236.651 30.4732C233.273 27.0347 231.584 25.3154 221.438 18.2584C186.453 -6.08114 106.887 -6.09114 71.922 18.2584C61.7664 25.3254 60.367 26.7548 57.5482 29.6036C53.8398 33.3619 52.0005 35.2411 45.0035 45.5567C21.0138 81.1814 21.0138 161.927 44.9136 197.622C51.8506 207.947 53.33 209.466 56.3087 212.495C59.7172 215.974 61.4265 217.713 71.6521 224.84C106.497 249.089 186.183 249.139 221.048 224.9Z" fill="url(#paint0_linear_3935_89973)"/>
<path d="M219.467 222.622L219.465 222.623C202.704 234.276 174.731 240.294 146.344 240.28C117.957 240.267 89.9883 234.222 73.236 222.564C63.2079 215.574 61.5773 213.91 58.3782 210.645L58.2893 210.554L58.2857 210.551L58.2153 210.479C55.4475 207.665 54.0413 206.236 47.2153 196.075C35.7083 178.886 29.7618 150.422 29.7729 121.564C29.7841 92.7053 35.7529 64.2611 47.3011 47.1092C54.1865 36.9585 55.9373 35.184 59.4707 31.6032L59.5193 31.5539C59.5195 31.5536 59.5198 31.5534 59.5201 31.5531C59.566 31.5067 59.6115 31.4607 59.6567 31.415C62.2218 28.8217 63.6019 27.4263 73.5058 20.5345L73.5067 20.5339C90.3195 8.82551 118.289 2.77168 146.672 2.77292C175.055 2.77416 203.031 8.83032 219.854 20.5347L219.854 20.5348C229.789 27.4449 231.41 29.0949 234.571 32.3122L234.673 32.4166L234.675 32.418L234.839 32.5848C237.641 35.4309 239.166 36.9806 245.968 47.1938L245.971 47.1972C257.344 64.2182 263.226 92.6106 263.227 121.411C263.228 150.21 257.349 178.594 245.981 195.6C239.088 205.906 237.585 207.433 234.659 210.404L234.565 210.5L234.561 210.504L234.501 210.566C231.193 213.94 229.534 215.632 219.467 222.622Z" stroke="white" stroke-opacity="0.24" stroke-width="5.54584" style="mix-blend-mode:overlay"/>
</g>
<g filter="url(#filter2_i_3935_89973)">
<path fill-rule="evenodd" clip-rule="evenodd" d="M214.751 216.194C224.117 209.686 225.747 208.057 228.925 204.799C231.814 201.87 233.254 200.4 239.681 190.805C261.331 158.428 261.331 84.4701 239.681 52.094C233.254 42.4781 231.844 41.0487 229.035 38.1899C225.927 35.0313 224.387 33.452 215.101 26.9848C183.115 4.7043 110.246 4.7043 78.23 26.9848C68.934 33.452 67.6446 34.7614 65.0757 37.3703C61.6771 40.8088 59.9979 42.5381 53.6206 51.974C31.63 84.5801 31.63 158.528 53.5106 191.174C59.8479 200.63 61.2173 202.02 63.9362 204.799C67.0648 207.977 68.6242 209.576 77.9901 216.094C109.876 238.294 182.825 238.344 214.751 216.194Z" fill="url(#paint1_linear_3935_89973)"/>
</g>
<g style="mix-blend-mode:multiply" filter="url(#filter3_iii_3935_89973)">
<path fill-rule="evenodd" clip-rule="evenodd" d="M195.493 189.769C202.22 185.101 203.369 183.931 205.668 181.592C207.737 179.483 208.777 178.433 213.385 171.536C228.928 148.286 228.928 95.2491 213.385 71.9691C208.767 65.062 207.757 64.0425 205.748 61.9734C203.519 59.7143 202.41 58.5848 195.753 53.9768C172.762 37.9836 120.495 37.9836 97.5147 53.9768C90.8475 58.6148 89.9179 59.5544 88.0787 61.4336C85.6398 63.9025 84.4203 65.142 79.8522 71.9291C64.089 95.3091 63.999 148.386 79.7623 171.816C84.3203 178.603 85.2899 179.603 87.2491 181.592C89.4881 183.881 90.6076 185.021 97.3347 189.699C120.225 205.632 172.582 205.672 195.493 189.769Z" fill="url(#paint2_linear_3935_89973)" fill-opacity="0.75"/>
</g>
<g filter="url(#filter4_d_3935_89973)">
<path fill-rule="evenodd" clip-rule="evenodd" d="M145.897 29.3375C144.972 29.2818 144.084 28.9588 143.338 28.4079L142.999 30.6569C143.885 31.1737 144.891 31.4494 145.917 31.4566C146.614 31.5243 147.309 31.3241 147.863 30.8967C148.417 30.4694 148.787 29.847 148.898 29.1563C149.009 28.4657 148.852 27.7588 148.46 27.1796C148.068 26.6004 147.469 26.1924 146.787 26.0389L146.307 25.889C145.717 25.709 145.508 25.5191 145.508 25.2392C145.508 24.9594 145.707 24.7794 146.137 24.7794C146.922 24.8456 147.684 25.0736 148.376 25.4492L148.686 23.2401C147.897 22.8945 147.048 22.7045 146.187 22.6803C145.81 22.6518 145.432 22.7001 145.074 22.8224C144.716 22.9447 144.387 23.1384 144.107 23.3917C143.827 23.645 143.601 23.9527 143.443 24.2961C143.285 24.6395 143.198 25.0114 143.189 25.3892C143.183 26.0003 143.388 26.5948 143.768 27.0733C144.148 27.5518 144.681 27.8853 145.278 28.0181L145.757 28.178C146.427 28.3979 146.607 28.6178 146.607 28.8677C146.607 29.1176 146.407 29.3375 145.897 29.3375ZM135.744 28.7576C136.514 29.2718 137.417 29.5497 138.343 29.5572C138.852 29.5572 139.052 29.3073 139.032 29.0475C139.012 28.7876 138.833 28.5976 138.143 28.4077L137.663 28.2778C137.06 28.1732 136.511 27.8653 136.107 27.4051C135.703 26.945 135.469 26.3605 135.444 25.7489C135.433 25.3678 135.5 24.9886 135.642 24.6346C135.783 24.2807 135.996 23.9597 136.267 23.6915C136.538 23.4234 136.861 23.2139 137.216 23.076C137.572 22.9381 137.952 22.8748 138.333 22.8901C139.192 22.8706 140.047 23.0165 140.852 23.3199L140.662 25.539C139.948 25.2011 139.172 25.0139 138.383 24.9892C137.953 24.9892 137.773 25.2091 137.783 25.479C137.793 25.7489 138.013 25.9388 138.613 26.0887L139.102 26.2187C139.798 26.3312 140.424 26.7067 140.851 27.2676C141.278 27.8285 141.473 28.5319 141.396 29.2325C141.319 29.9331 140.976 30.5773 140.437 31.0321C139.899 31.4869 139.206 31.7175 138.503 31.6763C137.462 31.7241 136.428 31.4965 135.504 31.0166L135.744 28.7576ZM128.648 30.9465L131.137 30.6566L131.727 31.9561L134.376 31.6562L130.627 23.6596L127.629 23.9895L125.789 32.6658L128.428 32.3659L128.648 30.9465ZM129.348 26.2285L130.347 28.6575L128.958 28.7774L129.348 26.2285ZM121.657 31.1668L121.028 31.2767L121.407 33.4558L118.958 33.8856L117.499 25.6192L120.598 25.0794C121.008 24.9769 121.435 24.9597 121.852 25.029C122.269 25.0983 122.668 25.2525 123.023 25.4821C123.378 25.7117 123.683 26.0118 123.917 26.3637C124.151 26.7157 124.311 27.1121 124.386 27.5283C124.46 27.9481 124.447 28.3785 124.347 28.793C124.248 29.2075 124.065 29.5973 123.809 29.9382C123.554 30.2792 123.231 30.5641 122.861 30.7754C122.49 30.9867 122.081 31.1199 121.657 31.1668ZM120.658 27.1685L120.298 27.2285L120.648 29.2276L121.008 29.1676C121.151 29.1628 121.292 29.1271 121.421 29.0628C121.549 28.9986 121.662 28.9074 121.753 28.7955C121.843 28.6835 121.908 28.5534 121.943 28.4141C121.978 28.2748 121.983 28.1295 121.957 27.9881C121.936 27.8448 121.885 27.7078 121.806 27.5864C121.727 27.4651 121.622 27.3624 121.5 27.2854C121.377 27.2084 121.239 27.1589 121.095 27.1405C120.952 27.122 120.806 27.135 120.668 27.1785L120.658 27.1685ZM116.96 34.2851L114.781 26.1586L112.472 26.7383L113.472 30.7366L109.474 27.538L107.205 28.1377L109.334 36.2542L111.713 35.6345L110.713 31.6362L114.711 34.8648L116.96 34.2851ZM100.447 30.317C101.262 30.0262 102.145 29.9825 102.985 30.1911C103.825 30.3997 104.585 30.8515 105.169 31.4899C105.753 32.1283 106.136 32.9249 106.27 33.7799C106.404 34.635 106.282 35.5105 105.921 36.2968C105.559 37.0831 104.974 37.7453 104.238 38.2004C103.502 38.6555 102.647 38.8833 101.783 38.8553C100.918 38.8273 100.08 38.5447 99.3749 38.043C98.6697 37.5412 98.1283 36.8426 97.8184 36.0345C97.6112 35.4869 97.515 34.9035 97.5353 34.3183C97.5556 33.7331 97.692 33.1578 97.9366 32.6258C98.1812 32.0937 98.5291 31.6157 98.9601 31.2193C99.3911 30.823 99.8966 30.5162 100.447 30.317ZM101.307 32.546C100.935 32.6833 100.612 32.9281 100.38 33.2493C100.147 33.5705 100.016 33.9535 100.001 34.3497C99.9871 34.7459 100.091 35.1374 100.3 35.4744C100.509 35.8114 100.813 36.0787 101.174 36.2424C101.535 36.406 101.937 36.4586 102.328 36.3934C102.719 36.3282 103.082 36.1482 103.37 35.8763C103.659 35.6044 103.86 35.2528 103.948 34.8663C104.036 34.4797 104.008 34.0757 103.866 33.7055C103.778 33.4583 103.642 33.2313 103.464 33.0381C103.287 32.8449 103.072 32.6895 102.833 32.5813C102.594 32.473 102.336 32.4141 102.074 32.408C101.811 32.402 101.551 32.4489 101.307 32.546ZM98.1198 40.5728L97.3501 38.5737L94.6513 39.9631L94.1815 39.1035L96.2506 37.9839L95.251 36.0748L93.1819 37.1843L92.7521 36.3946L95.321 35.0052L94.0316 33.236L89.5535 35.6549L93.5518 43.0418L98.1198 40.5728ZM86.9827 45.9808L88.9818 44.5114L90.1513 45.441L92.3204 43.9016L85.1635 38.6839L82.7445 40.4031L85.3034 48.8695L87.4825 47.3302L86.9827 45.9808ZM85.3034 41.4627L87.3025 43.122L86.193 43.9216L85.3034 41.4627ZM158.422 25.6492L158.002 31.7066L155.513 31.5367L155.933 25.4693L153.934 25.3394L154.414 23.0404L160.211 23.4402L160.371 25.7792L158.422 25.6492ZM166.766 32.6361L167.326 30.517L164.207 30.1471L164.327 29.1476L166.656 29.4374L166.916 27.2784L164.587 26.9985L164.697 26.0989L167.606 26.4587V24.2597L162.608 23.6499L161.608 31.9863L166.766 32.6361ZM174.338 25.1991C175.02 25.3285 175.671 25.5863 176.257 25.9588L175.477 28.2878C175.028 27.9396 174.505 27.7001 173.948 27.5881C173.674 27.4887 173.381 27.4504 173.091 27.4759C172.8 27.5014 172.519 27.5901 172.267 27.7358C172.014 27.8814 171.796 28.0806 171.629 28.3193C171.462 28.5579 171.348 28.8303 171.297 29.1173C171.246 29.4043 171.259 29.699 171.334 29.9808C171.408 30.2625 171.544 30.5245 171.731 30.7483C171.918 30.9721 172.151 31.1524 172.415 31.2764C172.679 31.4005 172.966 31.4653 173.258 31.4665C173.862 31.5661 174.482 31.5075 175.057 31.2965L174.937 33.7555C174.196 33.9468 173.421 33.974 172.668 33.8354C172.084 33.7463 171.524 33.5403 171.021 33.2298C170.518 32.9193 170.083 32.5107 169.742 32.0283C169.401 31.546 169.16 30.9998 169.034 30.4223C168.909 29.8449 168.901 29.2481 169.011 28.6675C169.121 28.087 169.347 27.5346 169.676 27.0433C170.004 26.5521 170.428 26.132 170.923 25.8083C171.417 25.4846 171.971 25.2638 172.553 25.1591C173.135 25.0545 173.731 25.0681 174.308 25.1991H174.338ZM183.877 36.3146L186.026 28.1981L183.617 27.5583L182.868 30.3871L180.479 29.7574L181.228 26.9286L178.819 26.2889L176.67 34.4054L179.079 35.0451L179.869 32.0464L182.258 32.6761L181.468 35.6748L183.877 36.3146ZM191.012 37.3938L188.673 36.5041L187.823 37.6636L185.334 36.6641L190.932 29.877L193.7 30.9265L193.351 39.7827L190.932 38.8331L191.012 37.3938ZM191.241 35.2247L191.501 32.6258L189.932 34.7349L191.241 35.2247ZM203.752 36.5298C203.381 35.7512 202.788 35.0992 202.048 34.655C201.54 34.3532 200.977 34.1564 200.392 34.076C199.807 33.9957 199.212 34.0335 198.641 34.1873C198.071 34.3411 197.537 34.6076 197.072 34.9713C196.606 35.3349 196.218 35.7882 195.931 36.3043C195.515 37.0601 195.33 37.9217 195.4 38.7817C195.47 39.6416 195.791 40.4621 196.324 41.1408C196.857 41.8195 197.577 42.3266 198.396 42.5988C199.215 42.871 200.096 42.8964 200.929 42.6718C201.762 42.4472 202.51 41.9825 203.081 41.3356C203.652 40.6887 204.02 39.8882 204.14 39.0337C204.259 38.1791 204.124 37.3084 203.752 36.5298ZM199.795 36.4834C200.19 36.456 200.585 36.5467 200.929 36.7441C201.385 37.0061 201.72 37.4374 201.86 37.9445C202 38.4516 201.935 38.9936 201.678 39.4529C201.485 39.799 201.193 40.0797 200.84 40.2595C200.487 40.4392 200.088 40.5099 199.694 40.4626C199.301 40.4152 198.93 40.2519 198.63 39.9935C198.329 39.735 198.112 39.393 198.007 39.011C197.901 38.629 197.911 38.2241 198.036 37.8479C198.161 37.4717 198.395 37.1411 198.708 36.8982C199.021 36.6552 199.4 36.5108 199.795 36.4834ZM214.346 43.2515L209.348 50.0285L207.479 48.6691V43.5313L205.04 46.8799L203.041 45.4205L208.039 38.6434L209.928 39.9829V45.0607L212.337 41.7621L214.346 43.2515ZM206.051 197.096L204.002 198.545L202.892 197.635L200.713 199.175L207.87 204.383L210.289 202.673L207.73 194.197L205.561 195.736L206.051 197.096ZM207.69 201.594L205.691 199.934L206.801 199.145L207.69 201.594ZM195.651 204.492L194.882 202.433L199.46 199.964L203.458 207.351L198.98 209.77L197.69 208.001L200.259 206.611L199.839 205.822L197.76 206.911L196.761 205.002L198.83 203.882L198.36 203.013L195.651 204.492ZM190.026 212.859C190.863 213.068 191.743 213.026 192.556 212.739C193.108 212.542 193.615 212.236 194.048 211.84C194.48 211.444 194.829 210.966 195.074 210.433C195.319 209.901 195.455 209.324 195.474 208.738C195.493 208.152 195.395 207.568 195.185 207.021C194.874 206.216 194.333 205.521 193.629 205.022C192.926 204.523 192.09 204.243 191.228 204.216C190.366 204.189 189.515 204.417 188.782 204.871C188.048 205.325 187.465 205.985 187.105 206.769C186.744 207.553 186.623 208.425 186.756 209.278C186.888 210.13 187.269 210.924 187.851 211.561C188.433 212.198 189.189 212.649 190.026 212.859ZM192.624 209.819C192.391 210.139 192.068 210.383 191.696 210.52C191.202 210.701 190.655 210.68 190.176 210.461C189.697 210.242 189.324 209.843 189.137 209.35C188.997 208.979 188.97 208.576 189.06 208.19C189.15 207.804 189.352 207.453 189.642 207.183C189.931 206.912 190.295 206.734 190.686 206.67C191.077 206.606 191.478 206.66 191.838 206.825C192.199 206.989 192.502 207.257 192.71 207.595C192.917 207.932 193.02 208.324 193.005 208.72C192.99 209.116 192.857 209.498 192.624 209.819ZM178.227 216.907L176.098 208.791L178.347 208.201L182.345 211.439L181.345 207.441L183.724 206.821L185.853 214.948L183.584 215.538L179.646 212.339L180.646 216.337L178.227 216.907ZM171.979 211.8L171.349 211.91C170.935 211.966 170.537 212.105 170.179 212.318C169.82 212.532 169.508 212.816 169.262 213.153C169.016 213.491 168.84 213.874 168.746 214.281C168.652 214.688 168.641 215.109 168.714 215.521C168.786 215.932 168.942 216.324 169.17 216.674C169.398 217.023 169.694 217.323 170.041 217.555C170.388 217.788 170.779 217.947 171.189 218.025C171.599 218.103 172.021 218.096 172.429 218.007L175.517 217.457L174.058 209.191L171.599 209.631L171.979 211.8ZM172.699 215.848L172.349 215.908C172.213 215.946 172.07 215.955 171.93 215.935C171.79 215.914 171.656 215.863 171.537 215.787C171.418 215.71 171.316 215.609 171.239 215.491C171.162 215.372 171.111 215.238 171.089 215.098C171.062 214.96 171.064 214.818 171.096 214.681C171.128 214.543 171.188 214.414 171.273 214.302C171.358 214.19 171.465 214.097 171.589 214.029C171.712 213.961 171.849 213.92 171.989 213.909L172.349 213.849L172.699 215.848ZM161.878 212.399L164.367 212.119L164.587 210.69L167.236 210.39L165.386 219.046L162.438 219.386L158.689 211.39L161.338 211.09L161.878 212.399ZM162.678 214.398L163.677 216.817L164.087 214.238L162.678 214.398ZM154.663 213.498C155.588 213.515 156.488 213.792 157.262 214.298L157.502 212.049C156.579 211.567 155.544 211.339 154.504 211.389C153.8 211.348 153.107 211.579 152.569 212.033C152.031 212.488 151.687 213.132 151.61 213.833C151.533 214.534 151.728 215.237 152.155 215.798C152.582 216.359 153.208 216.734 153.904 216.847L154.394 216.977C154.993 217.127 155.213 217.297 155.223 217.577C155.233 217.856 155.053 218.066 154.623 218.066C153.834 218.042 153.058 217.854 152.344 217.517L152.155 219.736C152.959 220.039 153.814 220.185 154.673 220.165C155.054 220.181 155.434 220.117 155.79 219.98C156.145 219.842 156.468 219.632 156.739 219.364C157.01 219.096 157.223 218.775 157.365 218.421C157.506 218.067 157.573 217.688 157.562 217.307C157.537 216.696 157.302 216.113 156.898 215.655C156.494 215.196 155.945 214.89 155.343 214.788L154.863 214.658C154.174 214.468 153.984 214.258 153.974 214.008C153.964 213.758 154.154 213.498 154.663 213.498ZM149.675 214.648C148.928 214.101 148.04 213.779 147.116 213.718C146.606 213.718 146.406 213.938 146.406 214.188C146.406 214.438 146.586 214.658 147.256 214.888L147.736 215.038C148.332 215.172 148.863 215.506 149.243 215.984C149.623 216.462 149.828 217.056 149.825 217.667C149.817 218.045 149.731 218.418 149.574 218.762C149.416 219.106 149.19 219.414 148.909 219.668C148.629 219.921 148.299 220.115 147.941 220.237C147.583 220.358 147.203 220.406 146.826 220.376C145.969 220.355 145.123 220.169 144.337 219.826L144.637 217.617C145.33 217.989 146.092 218.213 146.876 218.276C147.316 218.276 147.506 218.097 147.506 217.817C147.506 217.537 147.296 217.357 146.706 217.177L146.226 217.027C145.516 216.901 144.884 216.501 144.466 215.914C144.048 215.326 143.878 214.598 143.992 213.885C144.106 213.173 144.495 212.535 145.076 212.107C145.657 211.679 146.382 211.497 147.096 211.599C148.121 211.616 149.125 211.891 150.015 212.399L149.675 214.648ZM135.007 211.359L134.587 217.417L132.648 217.277L132.808 219.626L138.606 220.026L139.085 217.727L137.086 217.587L137.496 211.529L135.007 211.359ZM125.684 212.549L126.243 210.43L131.401 211.049L130.402 219.396L125.354 218.776V216.587L128.252 216.937L128.362 216.047L125.953 215.757L126.213 213.608L128.542 213.888L128.662 212.889L125.684 212.549ZM116.746 217.157C117.335 217.528 117.99 217.782 118.675 217.906C119.255 218.025 119.853 218.027 120.434 217.913C121.015 217.798 121.567 217.569 122.058 217.239C122.549 216.908 122.97 216.484 123.295 215.989C123.621 215.494 123.844 214.94 123.953 214.358C124.049 213.785 124.03 213.198 123.898 212.632C123.766 212.066 123.524 211.532 123.185 211.06C122.846 210.588 122.417 210.188 121.922 209.883C121.428 209.577 120.878 209.372 120.304 209.28C119.552 209.138 118.778 209.162 118.035 209.35L117.945 211.809C118.522 211.603 119.14 211.544 119.745 211.639C120.034 211.644 120.318 211.712 120.578 211.838C120.838 211.964 121.068 212.145 121.252 212.368C121.435 212.591 121.568 212.851 121.642 213.131C121.715 213.41 121.727 213.702 121.676 213.987C121.626 214.272 121.514 214.542 121.349 214.779C121.184 215.016 120.97 215.215 120.721 215.361C120.472 215.508 120.194 215.598 119.906 215.627C119.618 215.656 119.328 215.622 119.055 215.527C118.498 215.41 117.975 215.167 117.526 214.818L116.746 217.157ZM106.974 214.908L109.123 206.791L111.532 207.431L110.753 210.43L113.132 211.069L113.921 208.071L116.33 208.71L114.191 216.817L111.772 216.187L112.522 213.358L110.133 212.719L109.383 215.547L106.974 214.908ZM104.304 206.561L101.965 205.662L102.095 204.272L99.6065 203.333L99.2566 212.179L102.025 213.239L107.643 206.392L105.154 205.392L104.304 206.561ZM101.476 210.44L101.736 207.841L103.025 208.331L101.476 210.44ZM90.9703 208.4C90.2251 207.961 89.6261 207.311 89.2482 206.533C88.8704 205.755 88.7305 204.882 88.846 204.025C88.9616 203.167 89.3275 202.363 89.8979 201.712C90.4683 201.062 91.2179 200.594 92.0528 200.367C92.8878 200.141 93.7711 200.166 94.5921 200.438C95.4131 200.711 96.1354 201.22 96.6685 201.902C97.2017 202.583 97.522 203.407 97.5895 204.269C97.6569 205.132 97.4685 205.995 97.0477 206.751C96.7623 207.264 96.3772 207.714 95.915 208.076C95.4529 208.437 94.923 208.703 94.3566 208.857C93.7903 209.01 93.1989 209.049 92.6173 208.971C92.0358 208.892 91.4758 208.698 90.9703 208.4ZM92.1298 206.311C92.4736 206.509 92.8682 206.599 93.2637 206.572C93.6591 206.544 94.0375 206.4 94.3507 206.157C94.6638 205.914 94.8978 205.584 95.0226 205.207C95.1475 204.831 95.1577 204.426 95.052 204.044C94.9463 203.662 94.7294 203.32 94.4288 203.062C94.1283 202.803 93.7577 202.64 93.3642 202.593C92.9706 202.545 92.5719 202.616 92.2186 202.796C91.8654 202.976 91.5735 203.256 91.3801 203.602C91.2459 203.827 91.1584 204.077 91.123 204.337C91.0875 204.597 91.1049 204.861 91.1739 205.114C91.243 205.367 91.3624 205.603 91.5249 205.809C91.6874 206.015 91.8898 206.185 92.1198 206.311H92.1298ZM83.6719 193.028L78.674 199.805L80.6832 201.254L83.0921 197.955V203.033L84.9813 204.413L89.9792 197.636L87.98 196.186L85.5411 199.525V194.397L83.6719 193.028ZM69.4906 179.023L70.98 181.072L72.3394 180.572L73.8788 182.741L65.4024 185.31L63.6432 182.921L68.8609 175.764L70.4003 177.923L69.4906 179.023ZM68.0913 180.702L66.432 182.701L68.8909 181.812L68.0913 180.702ZM65.6087 169.917L63.5496 170.687L64.989 173.386L64.1294 173.856L63.0098 171.786L61.1007 172.786L62.2202 174.855L61.4305 175.285L60.0311 172.706L58.2719 174.005L60.6908 178.484L68.0777 174.485L65.6087 169.917ZM55.2965 167.578C55.0059 166.762 54.9628 165.878 55.1725 165.038C55.3823 164.197 55.8356 163.438 56.4755 162.854C57.1155 162.27 57.9136 161.888 58.7698 161.756C59.626 161.624 60.5021 161.748 61.2882 162.112C62.0742 162.476 62.7353 163.064 63.1884 163.803C63.6414 164.541 63.8664 165.397 63.835 166.262C63.8036 167.128 63.5172 167.965 63.0118 168.669C62.5064 169.372 61.8045 169.911 60.9941 170.217C60.4469 170.421 59.8648 170.514 59.2814 170.492C58.6979 170.469 58.1247 170.331 57.5949 170.086C57.0651 169.841 56.5892 169.493 56.1947 169.062C55.8002 168.632 55.4949 168.127 55.2965 167.578ZM57.5256 166.729C57.6629 167.101 57.9077 167.423 58.2288 167.656C58.55 167.888 58.933 168.02 59.3292 168.034C59.7254 168.048 60.1169 167.944 60.454 167.736C60.791 167.527 61.0583 167.223 61.2219 166.861C61.3855 166.5 61.4381 166.099 61.3729 165.708C61.3077 165.317 61.1277 164.954 60.8558 164.665C60.5839 164.377 60.2323 164.175 59.8458 164.087C59.4593 163.999 59.0552 164.028 58.6851 164.17C58.1941 164.358 57.7971 164.732 57.5801 165.211C57.363 165.69 57.3434 166.235 57.5256 166.729ZM59.2595 151.125L51.133 153.254L51.7128 155.603L55.711 154.604L52.5124 158.602L53.1022 160.871L61.2287 158.742L60.6089 156.363L56.6107 157.362L59.8493 153.364L59.2595 151.125ZM56.1428 146.367L56.2628 147.007L58.4319 146.627L58.8617 149.076L50.6052 150.546L50.0555 147.447C49.9523 147.035 49.9352 146.605 50.005 146.186C50.0748 145.767 50.2302 145.366 50.4614 145.01C50.6926 144.653 50.9947 144.348 51.3489 144.113C51.7032 143.878 52.102 143.718 52.5205 143.644C52.939 143.57 53.3683 143.583 53.7818 143.681C54.1952 143.78 54.5838 143.963 54.9236 144.218C55.2634 144.474 55.5469 144.796 55.7567 145.166C55.9664 145.536 56.0979 145.945 56.1428 146.367ZM52.1446 147.367L52.2145 147.727L54.2137 147.377L54.1537 147.017C54.1438 146.875 54.1036 146.736 54.0358 146.611C53.968 146.485 53.8741 146.376 53.7605 146.29C53.6469 146.204 53.5162 146.143 53.3771 146.111C53.238 146.08 53.0938 146.079 52.9542 146.107C52.8152 146.13 52.6826 146.182 52.5651 146.26C52.4475 146.337 52.3478 146.439 52.2723 146.558C52.1967 146.677 52.1472 146.81 52.1269 146.95C52.1067 147.089 52.1161 147.231 52.1546 147.367H52.1446ZM55.9228 139.43L55.6429 136.941L56.9523 136.351L56.6524 133.712L48.6559 137.461L48.9957 140.4L57.652 142.299L57.3521 139.66L55.9228 139.43ZM51.2248 138.74L53.6437 137.741L53.8037 139.14L51.2248 138.74ZM53.7421 132.293C54.2496 131.521 54.5238 130.619 54.5317 129.694C54.5317 129.175 54.2818 128.985 54.0319 129.005C53.7821 129.025 53.5721 129.205 53.3822 129.884L53.2523 130.374C53.1477 130.977 52.8398 131.526 52.3796 131.93C51.9195 132.334 51.335 132.568 50.7234 132.593C50.3428 132.605 49.9639 132.537 49.6105 132.396C49.2571 132.254 48.9367 132.041 48.6693 131.77C48.4019 131.499 48.1934 131.175 48.0566 130.82C47.9199 130.465 47.8579 130.085 47.8746 129.704C47.8486 128.845 47.9948 127.988 48.3044 127.186L50.5235 127.375C50.1799 128.087 49.9925 128.864 49.9737 129.654C49.9737 130.084 50.1836 130.264 50.4535 130.244C50.7234 130.224 50.9133 130.024 51.0632 129.425L51.1932 128.935C51.3057 128.239 51.6812 127.613 52.2421 127.186C52.803 126.759 53.5064 126.564 54.207 126.641C54.9076 126.718 55.5518 127.062 56.0066 127.6C56.4614 128.138 56.692 128.831 56.6508 129.535C56.6889 130.558 56.4616 131.574 55.9911 132.483L53.7421 132.293ZM54.3114 122.138C54.2603 123.062 53.9408 123.951 53.3918 124.697L55.6309 125.016C56.1469 124.133 56.4258 123.131 56.4405 122.108C56.5429 121.394 56.3606 120.668 55.9329 120.088C55.5053 119.507 54.8665 119.117 54.1544 119.003C53.4423 118.889 52.7139 119.06 52.1262 119.478C51.5385 119.896 51.1387 120.528 51.0128 121.238L50.8629 121.718C50.683 122.308 50.4831 122.507 50.2132 122.507C49.9433 122.507 49.7634 122.318 49.7634 121.888C49.8202 121.103 50.0452 120.339 50.4231 119.649L48.214 119.339C47.8654 120.127 47.6785 120.976 47.6643 121.838C47.6313 122.216 47.6765 122.596 47.7971 122.956C47.9178 123.315 48.1112 123.646 48.3654 123.927C48.6196 124.209 48.9291 124.435 49.2745 124.591C49.62 124.747 49.9939 124.831 50.3731 124.836C50.9834 124.844 51.5777 124.642 52.0564 124.263C52.5351 123.885 52.869 123.353 53.002 122.757L53.1519 122.278C53.3818 121.608 53.5817 121.418 53.8416 121.418C54.1015 121.418 54.3114 121.628 54.3114 122.138ZM50.6237 109.613L56.6811 110.033L56.5112 112.522L50.4538 112.102L50.3138 114.101L48.0148 113.621L48.4146 107.824L50.7636 107.664L50.6237 109.613ZM57.612 101.266L55.4929 100.717L55.1631 103.835L54.1635 103.715L54.4434 101.376L52.2843 101.117L52.0044 103.456L51.1148 103.346L51.4647 100.437H49.2756L48.6559 105.435L56.9923 106.434L57.612 101.266ZM50.1838 93.7C50.3079 93.018 50.5624 92.3664 50.9335 91.7809L53.2725 92.5505C52.9231 93 52.6805 93.5229 52.5628 94.0799C52.4686 94.3526 52.4347 94.6425 52.4632 94.9296C52.4917 95.2167 52.582 95.4942 52.7279 95.7431C52.8738 95.992 53.0718 96.2064 53.3084 96.3715C53.545 96.5366 53.8145 96.6485 54.0985 96.6996C54.3824 96.7507 54.6741 96.7398 54.9534 96.6675C55.2327 96.5952 55.493 96.4633 55.7166 96.2809C55.9401 96.0985 56.1215 95.8699 56.2483 95.6107C56.3751 95.3515 56.4443 95.068 56.4511 94.7796C56.5475 94.1744 56.4855 93.5545 56.2712 92.9803L58.7301 93.0703C58.9267 93.8111 58.954 94.5866 58.8101 95.3393C58.7334 95.934 58.5358 96.5067 58.2297 97.0222C57.9235 97.5377 57.5152 97.9852 57.0298 98.3372C56.5444 98.6891 55.9921 98.9381 55.407 99.0688C54.8218 99.1995 54.2161 99.2092 53.627 99.0973C53.038 98.9853 52.4781 98.7541 51.9817 98.4179C51.4852 98.0816 51.0628 97.6474 50.7403 97.1419C50.4178 96.6365 50.2021 96.0704 50.1064 95.4785C50.0107 94.8866 50.037 94.2814 50.1838 93.7ZM61.2907 84.1638L53.1742 82.0147L52.5045 84.4237L55.3333 85.1733L54.7035 87.5623L51.8748 86.8126L51.245 89.2216L59.3516 91.3707L59.9913 88.9617L57.0226 88.1721L57.6523 85.7831L60.651 86.5727L61.2907 84.1638ZM62.3717 77.0168L61.4821 79.3658L62.6516 80.2155L61.702 82.7044L54.8549 77.0768L55.9145 74.318L64.7607 74.6678L63.7611 77.1568L62.3717 77.0168ZM60.2026 76.7969L57.6038 76.537L59.7128 78.0864L60.2026 76.7969ZM61.5085 64.268C60.732 64.6403 60.0821 65.2328 59.6399 65.9717C59.34 66.4784 59.1446 67.04 59.0652 67.6233C58.9858 68.2067 59.0242 68.8001 59.1779 69.3685C59.3316 69.9368 59.5977 70.4686 59.9603 70.9324C60.3229 71.3963 60.7748 71.7828 61.2892 72.0691C62.0436 72.4844 62.9035 72.6685 63.7619 72.5986C64.6202 72.5286 65.4389 72.2077 66.1161 71.6757C66.7933 71.1437 67.299 70.4242 67.5702 69.6069C67.8414 68.7895 67.8661 67.9105 67.6413 67.0792C67.4164 66.2479 66.9519 65.5012 66.3057 64.932C65.6594 64.3628 64.86 63.9964 64.007 63.8783C63.154 63.7602 62.285 63.8958 61.5085 64.268ZM61.4683 68.2651C61.4409 67.8696 61.5316 67.475 61.729 67.1312V67.1512C61.9877 66.6915 62.4175 66.3527 62.9249 66.2085C63.4323 66.0643 63.9761 66.1265 64.4379 66.3816C64.7839 66.5749 65.0646 66.8668 65.2444 67.2201C65.4242 67.5733 65.4949 67.9721 65.4475 68.3656C65.4001 68.7592 65.2368 69.1297 64.9784 69.4303C64.7199 69.7308 64.3779 69.9477 63.9959 70.0534C63.6139 70.1592 63.2091 70.1489 62.8329 70.0241C62.4566 69.8992 62.1261 69.6653 61.8831 69.3521C61.6401 69.0389 61.4958 68.6605 61.4683 68.2651ZM68.2287 53.6965L75.0158 58.6943L73.6464 60.5635H68.5186L71.8572 62.9725L70.4078 64.9716L63.6307 59.9738L64.9901 58.1146H70.068L66.7594 55.7056L68.2287 53.6965ZM222.072 62.0335L223.522 64.0326L222.612 65.1922L224.152 67.3612L229.369 60.2043L227.65 57.7953L219.174 60.3542L220.723 62.5233L222.072 62.0335ZM226.58 60.3542L224.921 62.3534L224.122 61.2438L226.58 60.3542ZM229.473 72.3691L227.424 73.1388L224.925 68.5707L232.311 64.5724L234.73 69.0405L232.961 70.34L231.572 67.7611L230.772 68.1909L231.922 70.27L230.012 71.2696L228.923 69.2404L228.063 69.7002L229.473 72.3691ZM237.854 78.0141C238.063 77.1748 238.02 76.2925 237.73 75.4777C237.531 74.9259 237.224 74.4193 236.826 73.9875C236.429 73.5556 235.95 73.2072 235.417 72.9625C234.884 72.7178 234.307 72.5817 233.721 72.5622C233.135 72.5427 232.551 72.6401 232.002 72.8488C231.195 73.1603 230.498 73.7027 229.998 74.4083C229.498 75.1139 229.217 75.9513 229.19 76.8157C229.163 77.6802 229.392 78.5334 229.848 79.2685C230.303 80.0037 230.965 80.5882 231.751 80.949C232.537 81.3098 233.412 81.4308 234.267 81.2969C235.121 81.1631 235.917 80.7802 236.555 80.1963C237.193 79.6124 237.645 78.8533 237.854 78.0141ZM234.798 75.4102C235.119 75.6427 235.363 75.9654 235.501 76.3373C235.683 76.8306 235.663 77.3758 235.446 77.8548C235.229 78.3337 234.832 78.7079 234.341 78.8962C233.971 79.0382 233.567 79.0669 233.181 78.9787C232.794 78.8905 232.442 78.6893 232.171 78.4008C231.899 78.1123 231.719 77.7494 231.653 77.3584C231.588 76.9673 231.641 76.5657 231.804 76.2046C231.968 75.8434 232.235 75.5391 232.572 75.3303C232.909 75.1215 233.301 75.0176 233.697 75.0318C234.093 75.046 234.476 75.1778 234.798 75.4102ZM241.913 89.8115L233.756 91.9605L233.167 89.7215L236.405 85.7232L232.407 86.7228L231.777 84.3438L239.914 82.2547L240.503 84.5137L237.315 88.512L241.313 87.5125L241.913 89.8115ZM236.794 96.049L236.914 96.6887C236.936 97.1285 237.053 97.5583 237.255 97.9496C237.456 98.341 237.74 98.6847 238.085 98.958C238.43 99.2314 238.83 99.4279 239.257 99.5347C239.684 99.6415 240.129 99.6559 240.562 99.5772C240.996 99.4984 241.407 99.3282 241.769 99.0779C242.132 98.8276 242.436 98.5029 242.663 98.1256C242.89 97.7482 243.034 97.3268 243.086 96.8894C243.137 96.4521 243.094 96.0088 242.961 95.5892L242.411 92.5005L234.155 93.9599L234.625 96.4388L236.794 96.049ZM240.842 95.3393L240.912 95.6891C240.95 95.8254 240.959 95.9682 240.938 96.1082C240.918 96.2482 240.867 96.3822 240.791 96.5012C240.714 96.6203 240.613 96.7218 240.494 96.7989C240.376 96.876 240.242 96.927 240.102 96.9486C239.963 96.9775 239.818 96.9761 239.679 96.9446C239.54 96.9132 239.409 96.8523 239.296 96.7662C239.182 96.68 239.088 96.5706 239.021 96.4451C238.953 96.3197 238.913 96.1812 238.903 96.039L238.843 95.6891L240.842 95.3393ZM237.381 106.164L237.091 103.676L235.672 103.456L235.362 100.807L244.028 102.656L244.358 105.595L236.362 109.353L236.062 106.704L237.381 106.164ZM239.38 105.365L241.799 104.365L239.221 103.955L239.38 105.365ZM238.476 113.371C238.485 112.442 238.762 111.536 239.276 110.762L237.017 110.532C236.54 111.458 236.313 112.491 236.357 113.531C236.32 114.233 236.553 114.923 237.009 115.458C237.464 115.993 238.108 116.334 238.807 116.409C239.506 116.485 240.207 116.29 240.767 115.864C241.326 115.438 241.701 114.814 241.815 114.121L241.945 113.641C242.095 113.041 242.285 112.821 242.554 112.811C242.824 112.801 243.044 112.981 243.044 113.411C243.016 114.198 242.825 114.97 242.485 115.68L244.714 115.88C245.014 115.075 245.157 114.22 245.133 113.361C245.15 112.981 245.088 112.601 244.951 112.246C244.815 111.89 244.606 111.567 244.339 111.296C244.071 111.025 243.751 110.812 243.397 110.67C243.044 110.528 242.665 110.461 242.285 110.472C241.674 110.495 241.09 110.727 240.629 111.129C240.169 111.531 239.861 112.079 239.756 112.681L239.626 113.171C239.436 113.851 239.226 114.051 238.976 114.061C238.726 114.071 238.476 113.881 238.476 113.371ZM239.615 118.369C239.067 119.111 238.747 119.997 238.695 120.918C238.695 121.438 238.915 121.638 239.165 121.638C239.415 121.638 239.635 121.458 239.855 120.788L240.005 120.309C240.138 119.71 240.473 119.176 240.953 118.796C241.434 118.415 242.031 118.212 242.644 118.22C243.022 118.228 243.395 118.313 243.739 118.471C244.083 118.628 244.391 118.854 244.645 119.135C244.898 119.416 245.092 119.745 245.214 120.104C245.335 120.462 245.383 120.841 245.353 121.218C245.328 122.076 245.138 122.921 244.793 123.707L242.584 123.407C242.96 122.712 243.188 121.946 243.253 121.158C243.253 120.728 243.064 120.539 242.794 120.539C242.524 120.539 242.324 120.748 242.144 121.338L241.994 121.818C241.868 122.528 241.468 123.16 240.881 123.578C240.293 123.996 239.565 124.167 238.852 124.053C238.14 123.939 237.502 123.549 237.074 122.969C236.646 122.388 236.464 121.662 236.566 120.948C236.582 119.922 236.861 118.917 237.376 118.03L239.615 118.369ZM236.339 133.032L242.397 133.442L242.267 135.391L244.606 135.232L245.006 129.434L242.707 128.954L242.567 130.953L236.509 130.534L236.339 133.032ZM237.525 142.349L235.406 141.789L236.035 136.631L244.372 137.631L243.762 142.688H241.563L241.923 139.78L241.023 139.67L240.743 142.009L238.584 141.749L238.874 139.41L237.875 139.29L237.525 142.349ZM242.081 151.285C242.455 150.697 242.709 150.042 242.831 149.356C242.979 148.774 243.007 148.167 242.912 147.574C242.817 146.981 242.601 146.413 242.278 145.906C241.955 145.4 241.532 144.964 241.034 144.628C240.537 144.291 239.976 144.059 239.385 143.948C238.795 143.836 238.188 143.847 237.602 143.979C237.015 144.111 236.463 144.362 235.977 144.716C235.492 145.07 235.084 145.52 234.779 146.038C234.474 146.556 234.279 147.13 234.204 147.727C234.066 148.48 234.093 149.254 234.284 149.996L236.743 150.086C236.53 149.511 236.468 148.892 236.563 148.286C236.569 147.998 236.637 147.713 236.762 147.453C236.888 147.193 237.069 146.963 237.292 146.779C237.515 146.596 237.776 146.463 238.055 146.39C238.335 146.316 238.627 146.304 238.911 146.355C239.196 146.405 239.466 146.517 239.703 146.682C239.941 146.847 240.139 147.061 240.286 147.31C240.432 147.56 240.523 147.838 240.551 148.125C240.58 148.413 240.546 148.703 240.452 148.976C240.333 149.531 240.095 150.053 239.752 150.506L242.081 151.285ZM239.831 161.051L231.715 158.932L232.355 156.523L235.353 157.303L235.983 154.914L232.984 154.134L233.624 151.725L241.741 153.864L241.101 156.273L238.272 155.533L237.642 157.912L240.471 158.662L239.831 161.051ZM231.533 163.7L230.643 166.039L229.204 165.899L228.254 168.388L237.111 168.748L238.16 165.979L231.313 160.351L230.374 162.84L231.533 163.7ZM235.411 166.519L232.812 166.269L233.302 164.979L235.411 166.519ZM233.372 177.074C232.933 177.819 232.283 178.418 231.505 178.796C230.727 179.174 229.854 179.314 228.997 179.198C228.139 179.083 227.335 178.717 226.684 178.147C226.034 177.576 225.566 176.827 225.34 175.992C225.113 175.157 225.138 174.273 225.411 173.452C225.683 172.631 226.192 171.909 226.874 171.376C227.555 170.843 228.379 170.522 229.241 170.455C230.104 170.388 230.967 170.576 231.723 170.997C232.234 171.284 232.682 171.67 233.042 172.133C233.402 172.595 233.667 173.124 233.82 173.69C233.974 174.256 234.013 174.846 233.936 175.427C233.859 176.008 233.668 176.568 233.372 177.074ZM231.283 175.925C231.482 175.581 231.573 175.186 231.547 174.79C231.52 174.394 231.376 174.015 231.133 173.701C230.889 173.387 230.558 173.153 230.182 173.028C229.805 172.902 229.399 172.892 229.017 172.999C228.634 173.105 228.292 173.323 228.034 173.624C227.776 173.926 227.613 174.297 227.567 174.691C227.52 175.086 227.592 175.485 227.773 175.838C227.955 176.191 228.237 176.482 228.584 176.674C229.043 176.928 229.582 176.991 230.087 176.851C230.592 176.711 231.021 176.378 231.283 175.925ZM218.004 184.411L224.791 189.358L226.23 187.339L222.921 184.92H228.009L229.399 183.101L222.612 178.103L221.162 180.102L224.501 182.541H219.373L218.004 184.411Z" fill="black" style="mix-blend-mode:overlay" shape-rendering="crispEdges"/>
</g>
</g>
<defs>
<filter id="filter0_d_3935_89973" x="0.379972" y="0" width="292.24" height="296.293" filterUnits="userSpaceOnUse" color-interpolation-filters="sRGB">
<feFlood flood-opacity="0" result="BackgroundImageFix"/>
<feColorMatrix in="SourceAlpha" type="matrix" values="0 0 0 0 0 0 0 0 0 0 0 0 0 0 0 0 0 0 127 0" result="hardAlpha"/>
<feOffset dy="26.62"/>
<feGaussianBlur stdDeviation="13.31"/>
<feComposite in2="hardAlpha" operator="out"/>
<feColorMatrix type="matrix" values="0 0 0 0 0 0 0 0 0 0 0 0 0 0 0 0 0 0 0.15 0"/>
<feBlend mode="normal" in2="BackgroundImageFix" result="effect1_dropShadow_3935_89973"/>
<feBlend mode="normal" in="SourceGraphic" in2="effect1_dropShadow_3935_89973" result="shape"/>
</filter>
<filter id="filter1_di_3935_89973" x="27" y="0" width="239" height="246.381" filterUnits="userSpaceOnUse" color-interpolation-filters="sRGB">
<feFlood flood-opacity="0" result="BackgroundImageFix"/>
<feColorMatrix in="SourceAlpha" type="matrix" values="0 0 0 0 0 0 0 0 0 0 0 0 0 0 0 0 0 0 127 0" result="hardAlpha"/>
<feOffset dy="3.3275"/>
<feComposite in2="hardAlpha" operator="out"/>
<feColorMatrix type="matrix" values="0 0 0 0 0.8125 0 0 0 0 0.659795 0 0 0 0 0.128646 0 0 0 1 0"/>
<feBlend mode="normal" in2="BackgroundImageFix" result="effect1_dropShadow_3935_89973"/>
<feBlend mode="normal" in="SourceGraphic" in2="effect1_dropShadow_3935_89973" result="shape"/>
<feColorMatrix in="SourceAlpha" type="matrix" values="0 0 0 0 0 0 0 0 0 0 0 0 0 0 0 0 0 0 127 0" result="hardAlpha"/>
<feOffset dx="1.10917" dy="1.10917"/>
<feComposite in2="hardAlpha" operator="arithmetic" k2="-1" k3="1"/>
<feColorMatrix type="matrix" values="0 0 0 0 1 0 0 0 0 0.935833 0 0 0 0 0.708333 0 0 0 1 0"/>
<feBlend mode="normal" in2="shape" result="effect2_innerShadow_3935_89973"/>
</filter>
<filter id="filter2_i_3935_89973" x="37.1139" y="10.2744" width="218.805" height="226.938" filterUnits="userSpaceOnUse" color-interpolation-filters="sRGB">
<feFlood flood-opacity="0" result="BackgroundImageFix"/>
<feBlend mode="normal" in="SourceGraphic" in2="BackgroundImageFix" result="shape"/>
<feColorMatrix in="SourceAlpha" type="matrix" values="0 0 0 0 0 0 0 0 0 0 0 0 0 0 0 0 0 0 127 0" result="hardAlpha"/>
<feOffset dy="4.43667"/>
<feGaussianBlur stdDeviation="4.43667"/>
<feComposite in2="hardAlpha" operator="arithmetic" k2="-1" k3="1"/>
<feColorMatrix type="matrix" values="0 0 0 0 0 0 0 0 0 0 0 0 0 0 0 0 0 0 0.25 0"/>
<feBlend mode="overlay" in2="shape" result="effect1_innerShadow_3935_89973"/>
</filter>
<filter id="filter3_iii_3935_89973" x="67.9847" y="39.7636" width="157.058" height="164.127" filterUnits="userSpaceOnUse" color-interpolation-filters="sRGB">
<feFlood flood-opacity="0" result="BackgroundImageFix"/>
<feBlend mode="normal" in="SourceGraphic" in2="BackgroundImageFix" result="shape"/>
<feColorMatrix in="SourceAlpha" type="matrix" values="0 0 0 0 0 0 0 0 0 0 0 0 0 0 0 0 0 0 127 0" result="hardAlpha"/>
<feOffset dy="-1.10917"/>
<feComposite in2="hardAlpha" operator="arithmetic" k2="-1" k3="1"/>
<feColorMatrix type="matrix" values="0 0 0 0 1 0 0 0 0 0.935833 0 0 0 0 0.708333 0 0 0 0.6 0"/>
<feBlend mode="normal" in2="shape" result="effect1_innerShadow_3935_89973"/>
<feColorMatrix in="SourceAlpha" type="matrix" values="0 0 0 0 0 0 0 0 0 0 0 0 0 0 0 0 0 0 127 0" result="hardAlpha"/>
<feOffset dy="-2.21834"/>
<feGaussianBlur stdDeviation="3.3275"/>
<feComposite in2="hardAlpha" operator="arithmetic" k2="-1" k3="1"/>
<feColorMatrix type="matrix" values="0 0 0 0 0 0 0 0 0 0 0 0 0 0 0 0 0 0 0.12 0"/>
<feBlend mode="overlay" in2="effect1_innerShadow_3935_89973" result="effect2_innerShadow_3935_89973"/>
<feColorMatrix in="SourceAlpha" type="matrix" values="0 0 0 0 0 0 0 0 0 0 0 0 0 0 0 0 0 0 127 0" result="hardAlpha"/>
<feOffset dy="2.21834"/>
<feGaussianBlur stdDeviation="3.3275"/>
<feComposite in2="hardAlpha" operator="arithmetic" k2="-1" k3="1"/>
<feColorMatrix type="matrix" values="0 0 0 0 0 0 0 0 0 0 0 0 0 0 0 0 0 0 0.09 0"/>
<feBlend mode="normal" in2="effect2_innerShadow_3935_89973" result="effect3_innerShadow_3935_89973"/>
</filter>
<filter id="filter4_d_3935_89973" x="47.6538" y="22.6724" width="197.708" height="198.821" filterUnits="userSpaceOnUse" color-interpolation-filters="sRGB">
<feFlood flood-opacity="0" result="BackgroundImageFix"/>
<feColorMatrix in="SourceAlpha" type="matrix" values="0 0 0 0 0 0 0 0 0 0 0 0 0 0 0 0 0 0 127 0" result="hardAlpha"/>
<feOffset dy="1.10917"/>
<feComposite in2="hardAlpha" operator="out"/>
<feColorMatrix type="matrix" values="0 0 0 0 1 0 0 0 0 1 0 0 0 0 1 0 0 0 0.48 0"/>
<feBlend mode="normal" in2="BackgroundImageFix" result="effect1_dropShadow_3935_89973"/>
<feBlend mode="normal" in="SourceGraphic" in2="effect1_dropShadow_3935_89973" result="shape"/>
</filter>
<linearGradient id="paint0_linear_3935_89973" x1="146.5" y1="0" x2="146.5" y2="243.053" gradientUnits="userSpaceOnUse">
<stop stop-color="#FFC226"/>
<stop offset="0.5" stop-color="#FFF171"/>
<stop offset="1" stop-color="#FFC226"/>
</linearGradient>
<linearGradient id="paint1_linear_3935_89973" x1="146.516" y1="10.2744" x2="146.516" y2="232.775" gradientUnits="userSpaceOnUse">
<stop stop-color="#FBE76B"/>
<stop offset="0.5" stop-color="#F1C651"/>
<stop offset="1" stop-color="#FBE76B"/>
</linearGradient>
<linearGradient id="paint2_linear_3935_89973" x1="146.514" y1="41.9819" x2="146.514" y2="201.672" gradientUnits="userSpaceOnUse">
<stop stop-color="#DAB85F"/>
<stop offset="0.5" stop-color="#FFF171"/>
<stop offset="1" stop-color="#EFC24E"/>
</linearGradient>
</defs>
</svg>
